<svg width="25" height="24" viewBox="0 0 25 24" fill="none" xmlns="http://www.w3.org/2000/svg">
<path d="M16.5 1C13.74 1 11.5 3.24 11.5 6C11.5 8.76 13.74 11 16.5 11C19.26 11 21.5 8.76 21.5 6C21.5 3.24 19.26 1 16.5 1ZM16.5 9C14.84 9 13.5 7.66 13.5 6C13.5 4.34 14.84 3 16.5 3C18.16 3 19.5 4.34 19.5 6C19.5 7.66 18.16 9 16.5 9ZM19.5 15H17.5C17.5 13.8 16.75 12.72 15.63 12.3L9.47 10H1.5V21H7.5V19.56L14.5 21.5L22.5 19V18C22.5 16.34 21.16 15 19.5 15ZM5.5 19H3.5V12H5.5V19ZM14.47 19.41L7.5 17.5V12H9.11L14.93 14.17C15.27 14.3 15.5 14.63 15.5 15C15.5 15 13.5 14.95 13.2 14.85L10.82 14.06L10.19 15.96L12.57 16.75C13.08 16.92 13.61 17 14.15 17H19.5C19.89 17 20.24 17.24 20.4 17.57L14.47 19.41Z" fill="black"/>
</svg>
