<svg width="24" height="25" viewBox="0 0 24 25" fill="none" xmlns="http://www.w3.org/2000/svg">
<path d="M9.99998 18.6765H5.44436C4.5665 18.6765 4.14072 17.6028 4.77998 17.0012C5.55853 16.2684 5.99998 15.2467 5.99998 14.1776V11.5C5.99998 8.1863 8.68628 5.5 12 5.5M9.99998 18.6765V19.5C9.99998 20.6046 10.8954 21.5 12 21.5C13.1046 21.5 14 20.6046 14 19.5V18.6765M9.99998 18.6765H14M14 18.6765H18.5556C19.4335 18.6765 19.8592 17.6028 19.22 17.0012C18.4414 16.2684 18 15.2467 18 14.1776V11.5C18 8.18629 15.3137 5.5 12 5.5M12 5.5V4" stroke="#0E0E0E" stroke-width="1.5" stroke-linecap="round" stroke-linejoin="round"/>
<circle cx="16" cy="5.5" r="3" fill="#FF2D53"/>
</svg>
