<svg width="25" height="24" viewBox="0 0 25 24" fill="none" xmlns="http://www.w3.org/2000/svg">
<path d="M21.5 21L17.157 16.657M17.157 16.657C17.8999 15.9141 18.4892 15.0321 18.8912 14.0615C19.2933 13.0909 19.5002 12.0506 19.5002 11C19.5002 9.94936 19.2933 8.90905 18.8913 7.93842C18.4892 6.96779 17.8999 6.08585 17.157 5.34296C16.4141 4.60007 15.5322 4.01078 14.5616 3.60874C13.5909 3.20669 12.5506 2.99976 11.5 2.99976C10.4494 2.99976 9.40911 3.20669 8.43848 3.60874C7.46785 4.01078 6.58591 4.60007 5.84302 5.34296C4.34269 6.84329 3.49982 8.87818 3.49982 11C3.49982 13.1217 4.34269 15.1566 5.84302 16.657C7.34335 18.1573 9.37824 19.0002 11.5 19.0002C13.6218 19.0002 15.6567 18.1573 17.157 16.657Z" stroke="black" stroke-width="1.5" stroke-linecap="round" stroke-linejoin="round"/>
</svg>
